<svg xmlns:ns0="http://www.w3.org/2000/svg" version="1.1" width="100%" height="100%" viewBox="0 0 613 613">
  <path d="M0 0 C202.29 0 404.58 0 613 0 C613 202.29 613 404.58 613 613 C410.71 613 208.42 613 0 613 C0 410.71 0 208.42 0 0 Z " fill="#EBE1D1" transform="translate(0,0)" />
  <path d="M0 0 C0.70326416 -0.00073517 1.40652832 -0.00147034 2.13110352 -0.00222778 C20.54821951 0.04817641 36.11166312 4.33918516 52.5625 12.4375 C53.54476562 12.90929687 54.52703125 13.38109375 55.5390625 13.8671875 C63.33218174 17.84235207 71.34095401 23.21595401 77.5625 29.4375 C77.11884353 36.60425833 74.97629689 43.12527219 72.8125 49.9375 C72.45921631 51.0915332 72.10593262 52.24556641 71.74194336 53.43457031 C70.20436036 58.42725856 68.65200862 63.36503155 66.67578125 68.203125 C63.76246484 75.4427241 63.76246484 75.4427241 64.71484375 83.0234375 C65.94552185 85.38071944 67.25281359 87.69956371 68.6328125 89.97265625 C71.69888975 95.4779407 72.54051428 101.28200142 73.5625 107.4375 C73.81398804 108.60792847 73.81398804 108.60792847 74.07055664 109.80200195 C77.96551571 130.66854448 73.7770639 155.43110057 62.25 173.375 C60.74724251 175.44064603 59.18435268 177.46398347 57.5625 179.4375 C56.9142627 180.23414063 56.9142627 180.23414063 56.25292969 181.046875 C43.13592672 196.93480938 27.13427294 204.83354762 6.72436523 207.24560547 C2.7969193 207.59421896 -1.12186416 207.62187251 -5.0625 207.625 C-5.88234375 207.63724609 -6.7021875 207.64949219 -7.546875 207.66210938 C-12.25127807 207.6734544 -16.01361877 207.24857112 -20.4375 205.4375 C-15.60819322 209.20059619 -10.81202077 212.50594322 -5.4375 215.4375 C-4.344375 216.0975 -3.25125 216.7575 -2.125 217.4375 C2.22146169 219.93820399 6.88238954 221.66715641 11.5625 223.4375 C11.5625 224.0975 11.5625 224.7575 11.5625 225.4375 C12.13613281 225.51226562 12.70976562 225.58703125 13.30078125 225.6640625 C23.03408611 227.17058313 32.23576653 230.36402721 41.5625 233.4375 C41.5625 234.0975 41.5625 234.7575 41.5625 235.4375 C27.06599717 241.91738554 13.0422462 243.68037532 -2.75 243.75 C-3.82991211 243.75555908 -4.90982422 243.76111816 -6.02246094 243.7668457 C-11.06992088 243.72019856 -14.77148225 243.47507307 -19.4375 241.4375 C-21.07496439 241.10201949 -22.72225883 240.81206646 -24.375 240.5625 C-31.22303137 239.40245097 -37.79630297 237.4347067 -44.4375 235.4375 C-44.4375 234.7775 -44.4375 234.1175 -44.4375 233.4375 C-45.77361328 233.26154297 -45.77361328 233.26154297 -47.13671875 233.08203125 C-67.93120446 229.02156954 -88.09199611 207.19953615 -99.4375 190.4375 C-102.3300701 185.89764864 -104.94775293 181.20904045 -107.4375 176.4375 C-107.90430176 175.55715088 -108.37110352 174.67680176 -108.85205078 173.76977539 C-122.67878756 147.04841687 -125.93647529 117.42665188 -117.4375 88.4375 C-116.30220882 84.9835949 -114.95956292 81.73430031 -113.4375 78.4375 C-112.8299279 76.81377019 -112.2258822 75.18871737 -111.625 73.5625 C-105.61359143 58.65047874 -95.35455999 46.04448572 -84.4375 34.4375 C-83.88835937 33.82390625 -83.33921875 33.2103125 -82.7734375 32.578125 C-70.08195867 18.94885216 -51.917569 10.42300634 -34.5 4.8125 C-33.86803711 4.60608887 -33.23607422 4.39967773 -32.58496094 4.18701172 C-21.81843206 0.82486127 -11.24682246 -0.00513025 0 0 Z " fill="#EBE0CF" transform="translate(298.4375,64.5625)" />
  <path d="M0 0 C0.70326416 -0.00073517 1.40652832 -0.00147034 2.13110352 -0.00222778 C20.54821951 0.04817641 36.11166312 4.33918516 52.5625 12.4375 C53.54476562 12.90929687 54.52703125 13.38109375 55.5390625 13.8671875 C63.33218174 17.84235207 71.34095401 23.21595401 77.5625 29.4375 C77.11894076 36.60268773 74.9811111 43.12794243 72.8125 49.9375 C72.45414063 51.08138184 72.09578125 52.22526367 71.7265625 53.40380859 C71.01002778 55.68905175 70.29068558 57.97341676 69.56835938 60.25683594 C68.43996275 63.82497943 67.32573668 67.39738461 66.21386719 70.97070312 C65.33459639 73.79438834 64.44899027 76.61607424 63.5625 79.4375 C60.07865076 76.826107 57.53718651 74.27481616 55 70.75 C50.33879516 64.78717569 44.81261408 60.63771053 38.5625 56.4375 C37.85738281 55.95539063 37.15226563 55.47328125 36.42578125 54.9765625 C21.48134719 45.75740279 3.80854687 42.81215738 -13.33984375 46.2109375 C-16.4703772 47.12416196 -19.4288047 48.18459951 -22.4375 49.4375 C-23.22898437 49.73785156 -24.02046875 50.03820312 -24.8359375 50.34765625 C-42.98047733 57.70096976 -57.29507514 71.80634363 -65.4375 89.5 C-66.12387544 91.13771199 -66.79194724 92.78327104 -67.4375 94.4375 C-67.78554687 95.2625 -68.13359375 96.0875 -68.4921875 96.9375 C-75.53753464 115.56982301 -72.44488333 138.91852465 -64.60546875 156.75390625 C-54.07665572 179.30282821 -37.77849948 194.20841152 -17.28125 207.55859375 C-14.54680937 209.36527774 -11.90068024 211.26084816 -9.25 213.1875 C-4.85788555 216.28450378 -0.41487088 218.45389832 4.5625 220.4375 C5.91800517 221.01771623 7.27229521 221.60078467 8.625 222.1875 C9.594375 222.6 10.56375 223.0125 11.5625 223.4375 C11.5625 224.0975 11.5625 224.7575 11.5625 225.4375 C12.13613281 225.51226562 12.70976562 225.58703125 13.30078125 225.6640625 C23.03408611 227.17058313 32.23576653 230.36402721 41.5625 233.4375 C41.5625 234.0975 41.5625 234.7575 41.5625 235.4375 C27.06599717 241.91738554 13.0422462 243.68037532 -2.75 243.75 C-3.82991211 243.75555908 -4.90982422 243.76111816 -6.02246094 243.7668457 C-11.06992088 243.72019856 -14.77148225 243.47507307 -19.4375 241.4375 C-21.07496439 241.10201949 -22.72225883 240.81206646 -24.375 240.5625 C-31.22303137 239.40245097 -37.79630297 237.4347067 -44.4375 235.4375 C-44.4375 234.7775 -44.4375 234.1175 -44.4375 233.4375 C-45.77361328 233.26154297 -45.77361328 233.26154297 -47.13671875 233.08203125 C-67.93120446 229.02156954 -88.09199611 207.19953615 -99.4375 190.4375 C-102.3300701 185.89764864 -104.94775293 181.20904045 -107.4375 176.4375 C-107.90430176 175.55715088 -108.37110352 174.67680176 -108.85205078 173.76977539 C-122.67878756 147.04841687 -125.93647529 117.42665188 -117.4375 88.4375 C-116.30220882 84.9835949 -114.95956292 81.73430031 -113.4375 78.4375 C-112.8299279 76.81377019 -112.2258822 75.18871737 -111.625 73.5625 C-105.61359143 58.65047874 -95.35455999 46.04448572 -84.4375 34.4375 C-83.88835937 33.82390625 -83.33921875 33.2103125 -82.7734375 32.578125 C-70.08195867 18.94885216 -51.917569 10.42300634 -34.5 4.8125 C-33.86803711 4.60608887 -33.23607422 4.39967773 -32.58496094 4.18701172 C-21.81843206 0.82486127 -11.24682246 -0.00513025 0 0 Z " fill="#CB8128" transform="translate(298.4375,64.5625)" />
  <path d="M0 0 C7.64373173 6.31449974 14.07502121 13.30461621 19 22 C19 22.66 19 23.32 19 24 C19.66 24 20.32 24 21 24 C22.10675619 26.1862225 23.21044378 28.37390948 24.3125 30.5625 C24.7755957 31.47612305 24.7755957 31.47612305 25.24804688 32.40820312 C29.25456689 40.37906926 32.28321264 48.51275627 35 57 C35.28101563 57.87269531 35.56203125 58.74539062 35.8515625 59.64453125 C44.85457258 88.51782114 40.08033335 121.83260242 26.7578125 148.76171875 C24.69791621 152.63678442 22.43187132 156.34849717 20 160 C19.62246582 160.57008789 19.24493164 161.14017578 18.85595703 161.72753906 C16.70527134 164.92808554 14.55484482 168.10818524 12 171 C11.34 171 10.68 171 10 171 C9.76796875 171.55429687 9.5359375 172.10859375 9.296875 172.6796875 C3.70336003 182.68736187 -7.64600381 189.82707851 -17 196 C-17.59200195 196.39413086 -18.18400391 196.78826172 -18.79394531 197.19433594 C-29.55594296 204.29997595 -29.55594296 204.29997595 -36 205 C-36 204.34 -36 203.68 -36 203 C-37.16917969 202.73445312 -38.33835937 202.46890625 -39.54296875 202.1953125 C-41.09119417 201.83875149 -42.63936859 201.48196898 -44.1875 201.125 C-44.95642578 200.95097656 -45.72535156 200.77695312 -46.51757812 200.59765625 C-50.51387854 199.67147504 -54.2080686 198.59167491 -58 197 C-59.41011836 196.63996978 -60.82679245 196.30419703 -62.25 196 C-63.4875 195.67 -64.725 195.34 -66 195 C-66.33 194.34 -66.66 193.68 -67 193 C-68.83348998 192.35461153 -70.69334956 191.78337459 -72.5625 191.25 C-78.39847217 189.39940075 -82.3365863 186.85333714 -87 183 C-88.65948148 181.98812105 -90.32580562 180.9873454 -92 180 C-94.35785158 178.36535499 -96.67747379 176.68497 -99 175 C-98.34 174.67 -97.68 174.34 -97 174 C-96.31164062 174.30292969 -95.62328125 174.60585938 -94.9140625 174.91796875 C-91.06378786 176.34762837 -87.42697656 176.34100886 -83.375 176.3125 C-82.13278687 176.30512817 -82.13278687 176.30512817 -80.86547852 176.29760742 C-67.96370472 176.06028586 -55.16637614 174.8732038 -44 168 C-43.27167969 167.64292969 -42.54335938 167.28585937 -41.79296875 166.91796875 C-29.79078999 160.96942831 -21.96903132 151.07785604 -15 140 C-14.50846436 139.2265625 -14.01692871 138.453125 -13.51049805 137.65625 C-2.26092772 117.87358875 -0.81617917 91.83894905 -6.08203125 70.05859375 C-8.38336298 62.24185341 -8.38336298 62.24185341 -12.3203125 55.17578125 C-13.81129181 53.01433011 -14.47420892 51.59555988 -15 49 C-14.42077529 46.49752791 -13.76350675 44.23136715 -12.921875 41.8203125 C-12.44637223 40.38394863 -11.97187929 38.94725015 -11.49829102 37.51025391 C-11.24967316 36.76785461 -11.0010553 36.02545532 -10.74490356 35.26055908 C-9.53863627 31.59989935 -8.43296821 27.90988276 -7.32421875 24.21875 C-6.88494288 22.76687344 -6.44548995 21.31505044 -6.00585938 19.86328125 C-5.56639014 18.40885904 -5.12693719 16.9544319 -4.6875 15.5 C-4.22858205 13.98305282 -3.76959793 12.46612566 -3.31054688 10.94921875 C-2.20627316 7.299708 -1.10287816 3.64993272 0 0 Z " fill="#AAC2BD" transform="translate(376,95)" />
  <path d="M0 0 C2.80581804 1.9803547 5.47131066 4.07599519 8.14453125 6.23046875 C8.79292969 6.65714844 9.44132812 7.08382812 10.109375 7.5234375 C18.00167169 13.05341409 22.78043968 24.86793647 24.64453125 34.04296875 C24.85241877 35.76766522 25.02038686 37.49773008 25.14453125 39.23046875 C25.23605469 40.09671875 25.32757813 40.96296875 25.421875 41.85546875 C26.18234794 54.61657571 20.17262843 66.04958805 12.18359375 75.56640625 C4.98709764 83.38642549 -5.03996892 89.39302902 -15.82666016 90.41772461 C-17.92412083 90.49812643 -20.00669044 90.50837296 -22.10546875 90.48046875 C-23.22308594 90.46922974 -23.22308594 90.46922974 -24.36328125 90.45776367 C-38.50087697 90.18412292 -48.10043866 86.55855598 -58.49609375 76.80859375 C-68.29406211 66.10220448 -72.87351807 52.48847598 -72.23828125 38.1328125 C-70.85915923 24.07421152 -62.82083142 11.60157237 -51.98828125 2.6953125 C-49.99976831 1.34625911 -48.0227853 0.26833865 -45.85546875 -0.76953125 C-44.6334375 -1.35734375 -44.6334375 -1.35734375 -43.38671875 -1.95703125 C-30.6516296 -7.10830327 -11.88310621 -7.36394954 0 0 Z " fill="#CF9831" transform="translate(326.85546875,147.76953125)" />
  <path d="M0 0 C10.14183461 7.71139495 18.00620591 17.29534378 20.203125 30.1328125 C20.49237261 33.59653535 20.5282134 37.0334154 20.515625 40.5078125 C20.53173828 41.38953125 20.54785156 42.27125 20.56445312 43.1796875 C20.57058362 51.54168093 18.58353238 58.99726368 14.765625 66.4453125 C14.37503906 67.22519531 13.98445313 68.00507813 13.58203125 68.80859375 C7.67313387 78.76834995 -2.07928579 84.76217839 -12.91015625 88.2890625 C-27.03292333 91.35490942 -40.29103621 89.51496182 -52.484375 81.72265625 C-62.4883108 74.84495039 -70.57321373 64.874324 -73.32958984 52.79907227 C-74.08274432 48.50168458 -74.02245256 44.2361119 -74.046875 39.8828125 C-74.0675 38.97917969 -74.088125 38.07554687 -74.109375 37.14453125 C-74.17733071 25.33722713 -69.74405946 15.5323802 -61.69140625 6.8671875 C-44.95051137 -8.65888138 -19.72566478 -13.16880973 0 0 Z " fill="#603E2A" transform="translate(285.796875,366.8671875)" />
  <path d="M0 0 C5.61 0 11.22 0 17 0 C17.33 10.56 17.66 21.12 18 32 C23.35692503 26.70617106 23.35692503 26.70617106 28.375 21.1875 C31.79564865 17.21089942 35.3292594 13.34662836 38.88671875 9.4921875 C41.15970184 7.03277861 41.15970184 7.03277861 42.53515625 3.71875 C45 1 45 1 47.46948242 0.52392578 C50.58372928 0.40803964 53.63721067 0.47784996 56.75 0.625 C58.36841797 0.66560547 58.36841797 0.66560547 60.01953125 0.70703125 C62.68171065 0.77770858 65.33984236 0.87631599 68 1 C63.82293038 6.84241806 59.27180527 12.1240007 54.3125 17.3125 C53.61278076 18.05089111 52.91306152 18.78928223 52.19213867 19.55004883 C48.12610145 23.82491153 44.00501693 28.03688618 39.8125 32.1875 C34.55309616 37.29393148 34.55309616 37.29393148 30 43 C30.72594979 51.62065372 42.44238057 60.68819367 48.19140625 66.79736328 C52.28708357 71.17000238 56.11273312 75.702657 59.85546875 80.3828125 C62.88500826 84.08006473 66.10693055 87.5893914 69.34765625 91.1015625 C71 93 71 93 71 94 C52.05806335 96.36683176 52.05806335 96.36683176 45.77978516 92.70507812 C41.93213598 89.32082104 39.08081768 85.22802062 36.29638672 80.95361328 C34.446539 78.165952 32.34466828 75.68231754 30.1875 73.125 C29.56230469 72.34382813 28.93710937 71.56265625 28.29296875 70.7578125 C24.96279481 66.75252663 21.46058785 62.89316133 18 59 C17.67 70.55 17.34 82.1 17 94 C11.39 94 5.78 94 0 94 C0 62.98 0 31.96 0 0 Z " fill="#613F2C" transform="translate(316,361)" />
  <path d="M0 0 C17.82 0 35.64 0 54 0 C54 5.28 54 10.56 54 16 C41.79 16 29.58 16 17 16 C17 23.26 17 30.52 17 38 C28.88 38 40.76 38 53 38 C53 43.61 53 49.22 53 55 C41.45 55 29.9 55 18 55 C18 62.59 18 70.18 18 78 C29.88 78 41.76 78 54 78 C54 83.28 54 88.56 54 94 C36.18 94 18.36 94 0 94 C0 62.98 0 31.96 0 0 Z " fill="#61412E" transform="translate(484,361)" />
  <path d="M0 0 C17.49 0 34.98 0 53 0 C53 4.95 53 9.9 53 15 C41.12 15 29.24 15 17 15 C17 22.59 17 30.18 17 38 C28.55 38 40.1 38 52 38 C52 42.95 52 47.9 52 53 C40.45 53 28.9 53 17 53 C17 61.25 17 69.5 17 78 C29.54 78 42.08 78 55 78 C55 82.95 55 87.9 55 93 C36.85 93 18.7 93 0 93 C0 62.31 0 31.62 0 0 Z " fill="#5D3C29" transform="translate(404,362)" />
  <path d="M0 0 C3.77907324 2.38643899 6.55857871 4.24196954 7.67578125 8.69140625 C7.78277344 9.45324219 7.88976562 10.21507812 8 11 C7.04287109 11.61488281 7.04287109 11.61488281 6.06640625 12.2421875 C5.24011719 12.78101563 4.41382813 13.31984375 3.5625 13.875 C2.73878906 14.40867187 1.91507813 14.94234375 1.06640625 15.4921875 C-1.11038871 16.83834306 -1.11038871 16.83834306 -2 19 C-4.13224685 17.95343847 -6.22506031 16.87369064 -8.296875 15.7109375 C-13.82904858 12.69819329 -17.69344275 10.94890712 -24 12 C-26.83322054 13.37423304 -27.86041429 14.4859868 -30 17 C-30.6319494 21.4236458 -30.3202921 25.1328465 -28 29 C-25.71968064 30.06810753 -25.71968064 30.06810753 -23 31 C-22.06172363 31.34643555 -21.12344727 31.69287109 -20.15673828 32.04980469 C-19.13821777 32.42008789 -18.11969727 32.79037109 -17.0703125 33.171875 C-14.75515578 34.03110842 -12.44005347 34.89048844 -10.125 35.75 C-8.38669922 36.37648438 -8.38669922 36.37648438 -6.61328125 37.015625 C1.75891166 40.15400131 8.97163709 43.49567829 13 52 C15.53851575 59.98080132 15.2705992 69.64096751 11.4375 77.0625 C6.45453138 84.89121993 0.13775496 89.88213492 -9 92 C-20.41648119 93.14632701 -30.98808083 92.24250635 -40.3125 84.9375 C-45.33719421 80.13036987 -49.82527423 73.73476334 -50.15625 66.66015625 C-50.1046875 65.78230469 -50.053125 64.90445313 -50 64 C-44.54538831 62.61470179 -39.63281599 61.7603057 -34 62 C-33.72027344 62.67546875 -33.44054687 63.3509375 -33.15234375 64.046875 C-30.02761083 71.06176663 -30.02761083 71.06176663 -24.015625 75.44140625 C-19.05543961 76.81603127 -14.40036114 77.03097478 -9.6171875 74.9765625 C-5.2168643 72.43178233 -5.2168643 72.43178233 -3 68 C-2.72998954 65.8506118 -2.72998954 65.8506118 -2.6875 63.5625 C-2.63142578 62.41974609 -2.63142578 62.41974609 -2.57421875 61.25390625 C-3.18790838 58.00529233 -4.39256255 57.01559053 -7 55 C-9.57043562 53.8763123 -12.04443578 52.90270431 -14.6875 52 C-16.12696346 51.48361074 -17.5657718 50.96539154 -19.00390625 50.4453125 C-20.03862061 50.0745459 -20.03862061 50.0745459 -21.09423828 49.69628906 C-32.34742945 45.58482337 -39.91245913 40.05691153 -46.9375 30.3125 C-48.85536561 24.33327194 -49.26622186 17.66409127 -47.19140625 11.66015625 C-43.66363601 5.49571345 -37.72473634 -0.40442449 -31.19140625 -3.203125 C-20.89279628 -5.77462614 -9.50068054 -4.69258538 0 0 Z " fill="#603F2B" transform="translate(111,364)" />
  <path d="M0 0 C4.01179138 2.79573575 6.91625762 5.77439249 9.62890625 9.83203125 C10.06074219 10.45207031 10.49257813 11.07210938 10.9375 11.7109375 C15.09129867 19.05554346 14.95768511 28.69033884 13.62890625 36.83203125 C11.52096628 44.12668357 7.21982976 50.58076063 0.79296875 54.6875 C-7.93168702 59.3018035 -15.16347384 61.46141892 -24.87109375 58.76953125 C-33.12519286 55.68684851 -40.02004325 49.4642018 -44.37109375 41.83203125 C-47.8480585 33.26422049 -47.87337419 21.49556708 -44.37109375 12.83203125 C-40.2184592 5.6544744 -33.84982046 -1.11491767 -25.7890625 -3.6875 C-16.36781979 -5.55957246 -8.37702349 -4.76296808 0 0 Z " fill="#EADFCF" transform="translate(275.37109375,380.16796875)" />
  <path d="M0 0 C22.44 0 44.88 0 68 0 C68 5.28 68 10.56 68 16 C59.75 16 51.5 16 43 16 C43 41.41 43 66.82 43 93 C37.39 93 31.78 93 26 93 C26 67.59 26 42.18 26 16 C17.42 16 8.84 16 0 16 C0 10.72 0 5.44 0 0 Z " fill="#603F2C" transform="translate(138,361)" />
  <path d="M0 0 C1.92150372 1.43772087 3.68464414 2.90057272 5.390625 4.5859375 C3.740625 6.5659375 2.090625 8.5459375 0.390625 10.5859375 C-0.33640625 10.04453125 -0.33640625 10.04453125 -1.078125 9.4921875 C-6.23330377 5.92321758 -9.35207011 4.86788612 -15.609375 5.5859375 C-19.61959608 6.67963416 -21.96762656 8.37810011 -24.609375 11.5859375 C-26.66947717 16.39284256 -26.15066425 22.022213 -24.484375 26.8359375 C-22.15062916 30.25876473 -20.35464066 31.78266144 -16.609375 33.5859375 C-11.91240638 34.23829425 -7.64382551 34.30301642 -3.609375 31.5859375 C-2.124375 29.1109375 -2.124375 29.1109375 -0.609375 26.5859375 C-4.569375 26.5859375 -8.529375 26.5859375 -12.609375 26.5859375 C-12.609375 24.2759375 -12.609375 21.9659375 -12.609375 19.5859375 C-5.679375 19.5859375 1.250625 19.5859375 8.390625 19.5859375 C7.09228246 31.27102037 7.09228246 31.27102037 2.390625 36.5859375 C-4.17514783 41.66816882 -10.34443189 41.93848832 -18.34375 41.203125 C-24.36772416 40.06462271 -27.69819598 37.26533553 -31.203125 32.3515625 C-34.70696761 26.23930373 -35.72412964 20.54534027 -34.609375 13.5859375 C-32.82759516 7.73294002 -29.74285562 3.97597187 -24.609375 0.5859375 C-17.15672307 -3.29125187 -7.52447208 -4.07763307 0 0 Z " fill="#5E3C2D" transform="translate(243.609375,490.4140625)" />
  <path d="M0 0 C3.40395716 2.05603982 5.34363884 3.62873951 7.578125 6.98046875 C8.20233023 12.41686082 8.90769634 18.81637159 5.828125 23.60546875 C1.22421624 28.46515022 -1.66864835 29.66452471 -8.234375 30.41796875 C-12.61081528 30.36081375 -14.87953316 28.68247137 -17.9453125 25.6796875 C-21.85492857 21.18052615 -22.99007952 17.06604974 -22.7734375 11.2265625 C-22.03790449 6.5273238 -19.83021781 3.30345745 -16.359375 0.04296875 C-11.01154812 -1.89135161 -5.30992961 -2.23530908 0 0 Z " fill="#ECE0CD" transform="translate(317.421875,177.01953125)" />
  <path d="M0 0 C5.61007889 1.12201578 7.09848845 2.84504976 10.4375 7.0625 C10.88931641 7.61099609 11.34113281 8.15949219 11.80664062 8.72460938 C15.34256392 13.05298073 18.64345988 17.52461317 22 22 C22.33 14.74 22.66 7.48 23 0 C25.31 0 27.62 0 30 0 C30 13.53 30 27.06 30 41 C25.50918522 39.8772963 25.04900548 39.27741149 22.375 35.75 C21.69179688 34.86054687 21.00859375 33.97109375 20.3046875 33.0546875 C19.54414063 32.04664063 18.78359375 31.03859375 18 30 C16.66586119 28.26610469 15.32757209 26.5354712 13.98876953 24.80517578 C11.98593085 22.20851415 9.99408559 19.60338953 8 17 C7.67 24.92 7.34 32.84 7 41 C4.69 41 2.38 41 0 41 C0 27.47 0 13.94 0 0 Z " fill="#613F30" transform="translate(311,490)" />
  <path d="M0 0 C7.26 0 14.52 0 22 0 C22 2.31 22 4.62 22 7 C17.38 7 12.76 7 8 7 C8 9.97 8 12.94 8 16 C12.62 16 17.24 16 22 16 C22 18.31 22 20.62 22 23 C17.38 23 12.76 23 8 23 C8 26.96 8 30.92 8 35 C12.62 35 17.24 35 22 35 C22 37.31 22 39.62 22 42 C14.74 42 7.48 42 0 42 C0 28.14 0 14.28 0 0 Z " fill="#5D3A2C" transform="translate(388,489)" />
  <path d="M0 0 C7.26 0 14.52 0 22 0 C22 2.31 22 4.62 22 7 C17.38 7 12.76 7 8 7 C8 9.97 8 12.94 8 16 C12.62 16 17.24 16 22 16 C22 18.31 22 20.62 22 23 C17.38 23 12.76 23 8 23 C8 26.96 8 30.92 8 35 C12.62 35 17.24 35 22 35 C22 37.31 22 39.62 22 42 C14.74 42 7.48 42 0 42 C0 28.14 0 14.28 0 0 Z " fill="#5D3A2C" transform="translate(271,489)" />
  <path d="M0 0 C2.64 0 5.28 0 8 0 C8 13.86 8 27.72 8 42 C5.36 42 2.72 42 0 42 C0 28.14 0 14.28 0 0 Z " fill="#5E3C2D" transform="translate(360,489)" />
  <path d="M0 0 C6.04801071 0.54981916 11.30601106 1.90429574 17 4 C17 4.66 17 5.32 17 6 C2.50349717 12.47988554 -11.5202538 14.24287532 -27.3125 14.3125 C-28.39241211 14.31805908 -29.47232422 14.32361816 -30.58496094 14.3293457 C-35.63242088 14.28269856 -39.33398225 14.03757307 -44 12 C-45.63746439 11.66451949 -47.28475883 11.37456646 -48.9375 11.125 C-55.78553137 9.96495097 -62.35880297 7.9972067 -69 6 C-69 5.34 -69 4.68 -69 4 C-69.94875 3.87625 -70.8975 3.7525 -71.875 3.625 C-75 3 -75 3 -77 1 C-72.428721 1.54855348 -68.32564205 2.41744803 -64 4 C-64 4.66 -64 5.32 -64 6 C-63.401875 5.79375 -62.80375 5.5875 -62.1875 5.375 C-60 5 -60 5 -57 7 C-54.98341096 7.41516798 -54.98341096 7.41516798 -52.875 7.5625 C-49 8 -49 8 -48 9 C-45.67182036 9.36760731 -43.3381615 9.70241581 -41 10 C-41 9.34 -41 8.68 -41 8 C-39.68 8.33 -38.36 8.66 -37 9 C-37 9.66 -37 10.32 -37 11 C-33.91674642 11.0582253 -30.83363495 11.09367134 -27.75 11.125 C-26.87730469 11.14175781 -26.00460937 11.15851563 -25.10546875 11.17578125 C-23.83896484 11.18544922 -23.83896484 11.18544922 -22.546875 11.1953125 C-21.38430176 11.21102295 -21.38430176 11.21102295 -20.19824219 11.22705078 C-17.72736912 10.97184066 -16.18541493 10.13944241 -14 9 C-10.765625 8.8046875 -10.765625 8.8046875 -7.25 8.875 C-6.07953125 8.89304687 -4.9090625 8.91109375 -3.703125 8.9296875 C-2.36507812 8.96449219 -2.36507812 8.96449219 -1 9 C-0.67 8.01 -0.34 7.02 0 6 C-0.99 5.67 -1.98 5.34 -3 5 C-2.01 4.67 -1.02 4.34 0 4 C0 2.68 0 1.36 0 0 Z " fill="#CB9638" transform="translate(323,294)" />
  <path d="M0 0 C0.556875 0.226875 1.11375 0.45375 1.6875 0.6875 C0.6975 1.0175 -0.2925 1.3475 -1.3125 1.6875 C-2.52132096 3.68766466 -2.52132096 3.68766466 -3.3125 5.6875 C-4.6325 5.6875 -5.9525 5.6875 -7.3125 5.6875 C-7.3125 7.0075 -7.3125 8.3275 -7.3125 9.6875 C-13.71034946 13.70183692 -13.71034946 13.70183692 -16.9375 13.625 C-19.58806435 13.45640572 -19.58806435 13.45640572 -22.0625 15.875 C-24.30644038 18.67992548 -25.0109013 20.16884855 -25.3125 23.6875 C-26.9625 23.6875 -28.6125 23.6875 -30.3125 23.6875 C-30.57421875 21.42578125 -30.57421875 21.42578125 -30.3125 18.6875 C-24.30074058 11.88864792 -15.06807538 7.27172608 -7.3125 2.6875 C-6.40757812 2.11 -5.50265625 1.5325 -4.5703125 0.9375 C-2.3125 -0.3125 -2.3125 -0.3125 0 0 Z " fill="#C97426" transform="translate(248.3125,76.3125)" />
  <path d="M0 0 C6.60674933 4.08928392 12.96766318 8.38383123 19.2109375 13.0078125 C22.99067806 15.70762719 26.91697514 18.13923415 30.8828125 20.5546875 C33 22 33 22 34 24 C33.43410156 23.855625 32.86820312 23.71125 32.28515625 23.5625 C31.55167969 23.376875 30.81820313 23.19125 30.0625 23 C29.33160156 22.814375 28.60070312 22.62875 27.84765625 22.4375 C25.23663247 21.8192449 23.60056311 22.32888694 21 23 C20.67 22.01 20.34 21.02 20 20 C18.6846659 19.29848848 17.34882408 18.63474075 16 18 C15.505 17.46375 15.01 16.9275 14.5 16.375 C12.847706 14.54951691 12.847706 14.54951691 9 15 C7.875 10.25 7.875 10.25 9 8 C8.443125 7.7525 7.88625 7.505 7.3125 7.25 C4.57589087 5.77075182 2.32349131 4.06532561 0 2 C0 1.34 0 0.68 0 0 Z " fill="#CA9432" transform="translate(263,260)" />
  <path d="M0 0 C4.571279 0.54855348 8.67435795 1.41744803 13 3 C13 3.66 13 4.32 13 5 C13.598125 4.79375 14.19625 4.5875 14.8125 4.375 C17 4 17 4 20 6 C22.01658904 6.41516798 22.01658904 6.41516798 24.125 6.5625 C28 7 28 7 29 8 C31.32817964 8.36760731 33.6618385 8.70241581 36 9 C36 8.34 36 7.68 36 7 C37.32 7.33 38.64 7.66 40 8 C40 8.66 40 9.32 40 10 C42.40541929 11.20270964 44.10366591 11.20316663 46.7890625 11.31640625 C47.73007812 11.35830078 48.67109375 11.40019531 49.640625 11.44335938 C50.62546875 11.48267578 51.6103125 11.52199219 52.625 11.5625 C53.61757813 11.60568359 54.61015625 11.64886719 55.6328125 11.69335938 C58.08839838 11.79961069 60.54408703 11.90164964 63 12 C63 12.33 63 12.66 63 13 C58.93756043 13.05819473 54.87522854 13.09366215 50.8125 13.125 C49.66201172 13.14175781 48.51152344 13.15851563 47.32617188 13.17578125 C46.21435547 13.18222656 45.10253906 13.18867188 43.95703125 13.1953125 C42.42526245 13.21102295 42.42526245 13.21102295 40.86254883 13.22705078 C37.85718403 12.98867217 35.73582757 12.22335184 33 11 C31.36253561 10.66451949 29.71524117 10.37456646 28.0625 10.125 C21.21446863 8.96495097 14.64119703 6.9972067 8 5 C8 4.34 8 3.68 8 3 C7.05125 2.87625 6.1025 2.7525 5.125 2.625 C2 2 2 2 0 0 Z " fill="#CD9B47" transform="translate(246,295)" />
  <path d="M0 0 C2.20133459 2.79982243 4.06495244 5.72573052 5.90551758 8.77197266 C10.72430011 16.6552988 16.23930324 22.71840774 23 29 C24.33894729 30.32769564 25.67441391 31.65896418 27 33 C26.01 33.495 26.01 33.495 25 34 C25 33.34 25 32.68 25 32 C23.23470405 30.78309467 23.23470405 30.78309467 21 30 C18.76529595 30.78309467 18.76529595 30.78309467 17 32 C16.731875 31.195625 16.46375 30.39125 16.1875 29.5625 C15.795625 28.716875 15.40375 27.87125 15 27 C14.01 26.67 13.02 26.34 12 26 C11.67 24.35 11.34 22.7 11 21 C10.01 20.67 9.02 20.34 8 20 C7.67 17.69 7.34 15.38 7 13 C6.195625 12.7525 5.39125 12.505 4.5625 12.25 C2 11 2 11 1.25 9.3125 C1.1675 8.549375 1.085 7.78625 1 7 C0.814375 5.7625 0.62875 4.525 0.4375 3.25 C0.293125 2.1775 0.14875 1.105 0 0 Z " fill="#CB953A" transform="translate(236,227)" />
  <path d="M0 0 C0.66 0 1.32 0 2 0 C1.7834375 1.13308594 1.7834375 1.13308594 1.5625 2.2890625 C-1.78911008 22.16597226 -1.89261068 43.29513269 8.31933594 61.26025391 C9 63 9 63 8 66 C6.515 66.495 6.515 66.495 5 67 C5.0825 65.96875 5.165 64.9375 5.25 63.875 C4.95579789 59.31486731 3.51004721 57.72703979 1 54 C0.375 50.0625 0.375 50.0625 0.2734375 48.22265625 C0.04366155 45.80310638 0.04366155 45.80310638 -1.00048828 42.81005859 C-2.00756068 38.97117928 -2.25825324 35.77425049 -2.265625 31.81640625 C-2.26753845 31.15720688 -2.2694519 30.49800751 -2.27142334 29.8188324 C-2.27277462 28.43480036 -2.26915266 27.05075519 -2.26074219 25.66674805 C-2.25004419 23.5711562 -2.26066416 21.47642475 -2.2734375 19.38085938 C-2.27945392 12.63795431 -2.0969885 6.44907176 0 0 Z " fill="#CA964B" transform="translate(227,162)" />
  <path d="M0 0 C0.6877416 2.13964055 1.11363967 3.55792517 0.54663086 5.76367188 C-3.53457638 22.46034819 -0.11673529 41.30941017 6 57 C6.81357674 59.20793688 7.6262773 61.41619714 8.4375 63.625 C8.76621094 64.44226563 9.09492188 65.25953125 9.43359375 66.1015625 C10 68 10 68 9 70 C8.566875 69.0409375 8.566875 69.0409375 8.125 68.0625 C7.17176549 65.84793921 7.17176549 65.84793921 5 65 C5 63.02 5 61.04 5 59 C4.34 59 3.68 59 3 59 C2.87625 57.88625 2.7525 56.7725 2.625 55.625 C2.3534187 51.96896323 2.3534187 51.96896323 0 50 C-2.37222527 41.46704258 -2.31359121 32.53960797 -2.26074219 23.75244141 C-2.24990818 21.60681602 -2.26076182 19.46200827 -2.2734375 17.31640625 C-2.27211748 15.93228985 -2.26955837 14.54817394 -2.265625 13.1640625 C-2.26224121 11.31482178 -2.26224121 11.31482178 -2.25878906 9.42822266 C-1.9979905 5.97337979 -1.24122714 3.22139734 0 0 Z " fill="#EED6B1" transform="translate(178,165)" />
  <path d="M0 0 C1.0625 1.8125 1.0625 1.8125 2 4 C1.67 4.99 1.34 5.98 1 7 C1.66 7 2.32 7 3 7 C2.67 7.99 2.34 8.98 2 10 C0.68 9.67 -0.64 9.34 -2 9 C-2 9.99 -2 10.98 -2 12 C-2.99 12 -3.98 12 -5 12 C-5 12.66 -5 13.32 -5 14 C-5.99 14 -6.98 14 -8 14 C-9.0260734 15.31337396 -10.02727325 16.64664105 -11 18 C-11.66 18 -12.32 18 -13 18 C-13 18.66 -13 19.32 -13 20 C-13.66 20 -14.32 20 -15 20 C-11.56417435 12.51166205 -6.09265884 5.52147208 0 0 Z " fill="#C97F30" transform="translate(213,100)" />
  <path d="M0 0 C4.84659077 0.59104765 8.60748167 1.97944157 13 4 C13 4.66 13 5.32 13 6 C13.77085937 6.12117188 14.54171875 6.24234375 15.3359375 6.3671875 C16.84027344 6.61855469 16.84027344 6.61855469 18.375 6.875 C19.37273437 7.03742188 20.37046875 7.19984375 21.3984375 7.3671875 C24 8 24 8 26 10 C23 10 20 10 17 10 C16.67 10.66 16.34 11.32 16 12 C15.34 12 14.68 12 14 12 C12.39771617 10.29059971 10.98705258 8.46698472 9.53515625 6.62890625 C7.99243114 4.73441742 7.99243114 4.73441742 5 4 C4.01 4.495 4.01 4.495 3 5 C2.67 4.34 2.34 3.68 2 3 C0.8553125 3.2784375 0.8553125 3.2784375 -0.3125 3.5625 C-3 4 -3 4 -6 3 C-5.01 2.34 -4.02 1.68 -3 1 C-2.01 1.33 -1.02 1.66 0 2 C0 1.34 0 0.68 0 0 Z " fill="#C6973A" transform="translate(297,284)" />
  <path d="M0 0 C0.33 0 0.66 0 1 0 C1 9.24 1 18.48 1 28 C1.66 28 2.32 28 3 28 C4.75173635 31.73703755 5.29788497 35.05825205 5.71875 39.1015625 C5.93881744 41.13005922 5.93881744 41.13005922 7 43.375 C8.55244535 47.45016905 8.68086304 51.67485432 9 56 C6.91380618 52.26223607 5.74115759 48.26075355 4.5 44.1875 C4.28730469 43.50107422 4.07460937 42.81464844 3.85546875 42.10742188 C3.22830094 40.07393607 2.60664114 38.03971765 2 36 C1.6488916 34.90655273 1.2977832 33.81310547 0.93603516 32.68652344 C-0.01409654 28.94448156 -0.22954102 25.82336528 -0.1953125 21.97265625 C-0.18886719 20.68681641 -0.18242187 19.40097656 -0.17578125 18.07617188 C-0.15907601 16.73827846 -0.14214619 15.40038783 -0.125 14.0625 C-0.11495322 12.69727217 -0.10583036 11.3320372 -0.09765625 9.96679688 C-0.07417605 6.64434801 -0.04133359 3.32226679 0 0 Z " fill="#D1A35F" transform="translate(177,173)" />
  <path d="M0 0 C0 0.66 0 1.32 0 2 C-0.71953857 1.97905273 -1.43907715 1.95810547 -2.18041992 1.93652344 C-21.00982173 1.25705953 -21.00982173 1.25705953 -39 6 C-40.76650266 6.5963194 -42.53704916 7.18087542 -44.3125 7.75 C-46.1378125 8.36875 -46.1378125 8.36875 -48 9 C-48 8.34 -48 7.68 -48 7 C-47.34 7 -46.68 7 -46 7 C-46 6.34 -46 5.68 -46 5 C-31.18919728 -1.6246402 -15.85180396 -0.50310901 0 0 Z " fill="#C27937" transform="translate(315,108)" />
  <path d="M0 0 C2.97898331 2.82773251 5.34500983 5.75613574 7.6875 9.125 C11.7397205 14.79505618 16.23879883 19.91918116 21 25 C20.34 25.66 19.68 26.32 19 27 C19 26.34 19 25.68 19 25 C18.360625 24.896875 17.72125 24.79375 17.0625 24.6875 C16.0415625 24.3471875 16.0415625 24.3471875 15 24 C14.67 23.01 14.34 22.02 14 21 C11.99983534 19.79117904 11.99983534 19.79117904 10 19 C10 17.68 10 16.36 10 15 C9.01 14.67 8.02 14.34 7 14 C7 13.34 7 12.68 7 12 C6.34 12 5.68 12 5 12 C3 9 3 9 3 6 C2.01 6 1.02 6 0 6 C0 4.02 0 2.04 0 0 Z " fill="#EDD4AC" transform="translate(195,249)" />
  <path d="M0 0 C0.66 0.33 1.32 0.66 2 1 C1.52372025 2.95903745 1.04388577 4.91721097 0.5625 6.875 C0.29566406 7.96554688 0.02882813 9.05609375 -0.24609375 10.1796875 C-1 13 -1 13 -2 15 C-3.06353479 25.79689744 -1.54433138 33.97573726 2.6875 43.8671875 C4 47 4 47 4 49 C3.01 48.67 2.02 48.34 1 48 C-0.04328609 45.52144172 -0.8716584 43.1921139 -1.625 40.625 C-1.8422876 39.89764648 -2.0595752 39.17029297 -2.28344727 38.42089844 C-5.89421942 25.84501943 -5.99844064 11.99688128 0 0 Z " fill="#EFDBBA" transform="translate(258,167)" />
  <path d="M0 0 C4.76147094 2.59925708 9.45172696 5.26560587 14.0625 8.125 C18.26197451 10.67491567 22.3444472 12.44814907 27 14 C27 14.66 27 15.32 27 16 C29.31 16.33 31.62 16.66 34 17 C34 17.33 34 17.66 34 18 C30.04 18.495 30.04 18.495 26 19 C26 18.34 26 17.68 26 17 C25.34 17 24.68 17 24 17 C24 16.34 24 15.68 24 15 C23.278125 14.87625 22.55625 14.7525 21.8125 14.625 C19.04278106 14.0095069 16.6029646 13.11555626 14 12 C14 11.34 14 10.68 14 10 C12.35 9.67 10.7 9.34 9 9 C9 8.34 9 7.68 9 7 C7.88625 6.773125 6.7725 6.54625 5.625 6.3125 C2 5 2 5 0.5625 2.375 C0.376875 1.59125 0.19125 0.8075 0 0 Z " fill="#EFD9B7" transform="translate(227,284)" />
  <path d="M0 0 C4.95 0 9.9 0 15 0 C15 0.66 15 1.32 15 2 C15.99 2 16.98 2 18 2 C18 2.66 18 3.32 18 4 C17.10796875 4.06058594 16.2159375 4.12117188 15.296875 4.18359375 C13.54117187 4.30927734 13.54117187 4.30927734 11.75 4.4375 C10.58984375 4.51871094 9.4296875 4.59992188 8.234375 4.68359375 C5.12133032 4.90649289 5.12133032 4.90649289 2.640625 5.59765625 C2.09921875 5.73042969 1.5578125 5.86320312 1 6 C0.67 5.67 0.34 5.34 0 5 C0 3.35 0 1.7 0 0 Z " fill="#CA721F" transform="translate(299,66)" />
  <path d="M0 0 C-0.66 1.32 -1.32 2.64 -2 4 C-2.66 3.34 -3.32 2.68 -4 2 C-5.32 2 -6.64 2 -8 2 C-7.67 2.99 -7.34 3.98 -7 5 C-11.96073422 6.32286246 -16.91111512 6.08893197 -22 6 C-22 5.01 -22 4.02 -22 3 C-19.64741656 2.49133331 -17.29338596 1.9929375 -14.9375 1.5 C-13.95233398 1.28537109 -13.95233398 1.28537109 -12.94726562 1.06640625 C-8.56860012 0.16047545 -4.49581296 -0.14031146 0 0 Z " fill="#C97120" transform="translate(291,66)" />
  <path d="M0 0 C7.38461538 -0.36923077 7.38461538 -0.36923077 10.5 1.5 C10.995 1.995 11.49 2.49 12 3 C11.625 5.4375 11.625 5.4375 11 8 C10.01 8.495 10.01 8.495 9 9 C8.34 8.67 7.68 8.34 7 8 C7 7.34 7 6.68 7 6 C5.68 6 4.36 6 3 6 C3 5.01 3 4.02 3 3 C1.68 3 0.36 3 -1 3 C-0.67 2.01 -0.34 1.02 0 0 Z " fill="#C47429" transform="translate(352,82)" />
  <path d="M0 0 C0.78375 0.04125 1.5675 0.0825 2.375 0.125 C-2.83068121 4.43827872 -6.79816915 7.33118246 -13.625 8.125 C-13.625 7.465 -13.625 6.805 -13.625 6.125 C-18.08 5.135 -18.08 5.135 -22.625 4.125 C-22.625 3.795 -22.625 3.465 -22.625 3.125 C-21.34882813 3.07601563 -20.07265625 3.02703125 -18.7578125 2.9765625 C-17.08851928 2.90153809 -15.41924954 2.82599012 -13.75 2.75 C-12.90824219 2.7190625 -12.06648438 2.688125 -11.19921875 2.65625 C-10.39355469 2.61757813 -9.58789062 2.57890625 -8.7578125 2.5390625 C-8.01418457 2.5076416 -7.27055664 2.4762207 -6.50439453 2.44384766 C-3.52238234 1.937936 -3.25078425 0.15479925 0 0 Z " fill="#BBC2B2" transform="translate(353.625,291.875)" />
  <path d="M0 0 C0.66 0.33 1.32 0.66 2 1 C1.01 2.485 1.01 2.485 0 4 C-0.99 4 -1.98 4 -3 4 C-3.268125 4.598125 -3.53625 5.19625 -3.8125 5.8125 C-5 8 -5 8 -6.5625 9.4375 C-8.45263121 11.49199044 -8.6324247 13.27994277 -9 16 C-10.65 16 -12.3 16 -14 16 C-14.296875 13.7578125 -14.296875 13.7578125 -14 11 C-11.953125 8.8671875 -11.953125 8.8671875 -9.25 6.875 C-7.92742187 5.88113281 -7.92742187 5.88113281 -6.578125 4.8671875 C-5.72734375 4.25101562 -4.8765625 3.63484375 -4 3 C-2.66559275 2.0014335 -1.3318382 1.00199042 0 0 Z " fill="#CA7D32" transform="translate(232,84)" />
  <path d="M0 0 C0.33 0 0.66 0 1 0 C1.02686553 1.97909398 1.04633375 3.95828971 1.0625 5.9375 C1.07410156 7.03964844 1.08570313 8.14179688 1.09765625 9.27734375 C1 12 1 12 0 13 C-0.08783542 15.21855264 -0.10694609 17.43988496 -0.09765625 19.66015625 C-0.0962413 20.32462265 -0.09482635 20.98908905 -0.09336853 21.6736908 C-0.08775518 23.80333899 -0.07520054 25.93288339 -0.0625 28.0625 C-0.05748671 29.50325369 -0.05292351 30.94400903 -0.04882812 32.38476562 C-0.03778145 35.92321102 -0.02050792 39.46159539 0 43 C-0.66 43 -1.32 43 -2 43 C-2.0500364 38.6441391 -2.08601534 34.2884376 -2.10986328 29.93237305 C-2.11982183 28.45545532 -2.13339361 26.97855678 -2.15087891 25.50170898 C-2.25106696 16.81186893 -2.02557584 8.50993051 0 0 Z " fill="#CA8C3D" transform="translate(180,158)" />
  <path d="M0 0 C2.18975773 3.28463659 2.99806563 6.20696275 4 10 C4.66 10 5.32 10 6 10 C6.268125 10.804375 6.53625 11.60875 6.8125 12.4375 C7.204375 13.283125 7.59625 14.12875 8 15 C8.99 15.33 9.98 15.66 11 16 C10.67 15.01 10.34 14.02 10 13 C10.66 13 11.32 13 12 13 C11.88140625 13.58007812 11.7628125 14.16015625 11.640625 14.7578125 C10.69138585 20.44383938 10.69138585 20.44383938 12.9375 25.5625 C13.618125 26.366875 14.29875 27.17125 15 28 C14.67 28.66 14.34 29.32 14 30 C9.8413194 23.91998369 6.20461034 17.71738706 3.0625 11.0625 C2.75626709 10.4243335 2.45003418 9.78616699 2.13452148 9.12866211 C0.58628198 5.76828369 0 3.77820562 0 0 Z " fill="#C9943C" transform="translate(186,226)" />
  <path d="M0 0 C2.62506802 -0.02690844 5.24986173 -0.04679404 7.875 -0.0625 C8.62136719 -0.07087891 9.36773437 -0.07925781 10.13671875 -0.08789062 C15.7734375 -0.11328125 15.7734375 -0.11328125 18 1 C19.54023996 1.06950541 21.08334988 1.08452357 22.625 1.0625 C23.44226563 1.05347656 24.25953125 1.04445312 25.1015625 1.03515625 C25.72804688 1.02355469 26.35453125 1.01195312 27 1 C27 1.66 27 2.32 27 3 C28.29233607 4.37310707 29.62437146 5.71034824 31 7 C30.32453125 6.79503906 29.6490625 6.59007812 28.953125 6.37890625 C28.06109375 6.10949219 27.1690625 5.84007812 26.25 5.5625 C25.36828125 5.29566406 24.4865625 5.02882812 23.578125 4.75390625 C19.88897792 3.67511021 16.52108254 2.87605413 12.671875 2.68359375 C11.47304688 2.62075195 11.47304688 2.62075195 10.25 2.55664062 C9.0125 2.49766602 9.0125 2.49766602 7.75 2.4375 C6.90953125 2.39431641 6.0690625 2.35113281 5.203125 2.30664062 C3.13559329 2.20091457 1.06781719 2.09998705 -1 2 C-0.67 1.34 -0.34 0.68 0 0 Z " fill="#ECD2AA" transform="translate(296,141)" />
  <path d="M0 0 C1.299375 0.4640625 1.299375 0.4640625 2.625 0.9375 C8.57013265 2.67303562 14.85139382 2.67594031 21 3 C17 5 17 5 13 7 C13.99 8.485 13.99 8.485 15 10 C8.49546212 8.18478013 4.61657368 4.78755789 0 0 Z " fill="#BFBDA2" transform="translate(277,269)" />
  <path d="M0 0 C0.7265625 1.6875 0.7265625 1.6875 1 4 C-0.4765625 6.4375 -0.4765625 6.4375 -2.625 9 C-3.31851562 9.845625 -4.01203125 10.69125 -4.7265625 11.5625 C-7.03438581 14.03686726 -9.16733778 16.14134466 -12 18 C-14.3125 17.75 -14.3125 17.75 -16 17 C-15.32453125 16.40832031 -14.6490625 15.81664062 -13.953125 15.20703125 C-13.06109375 14.41683594 -12.1690625 13.62664062 -11.25 12.8125 C-10.36828125 12.03519531 -9.4865625 11.25789062 -8.578125 10.45703125 C-5.21650375 7.25330434 -2.5710614 3.8565921 0 0 Z " fill="#EFDBB6" transform="translate(345,214)" />
  <path d="M0 0 C-0.70125 0.42410156 -1.4025 0.84820312 -2.125 1.28515625 C-8.25047922 5.07196745 -13.75866806 9.05903093 -19 14 C-20 11 -20 11 -19.0625 8.8125 C-18.5365625 7.9153125 -18.5365625 7.9153125 -18 7 C-17.67 7.66 -17.34 8.32 -17 9 C-16.34 9 -15.68 9 -15 9 C-15 8.01 -15 7.02 -15 6 C-14.34 5.67 -13.68 5.34 -13 5 C-12.67 4.01 -12.34 3.02 -12 2 C-10.0390625 1.015625 -10.0390625 1.015625 -7.625 0.25 C-6.83351563 -0.01296875 -6.04203125 -0.2759375 -5.2265625 -0.546875 C-3 -1 -3 -1 0 0 Z " fill="#C48240" transform="translate(267,118)" />
  <path d="M0 0 C0.33 0 0.66 0 1 0 C1 9.24 1 18.48 1 28 C-2.08292137 23.37561795 -2.18261764 19.5727479 -2.1875 14.1875 C-2.19974609 13.48818359 -2.21199219 12.78886719 -2.22460938 12.06835938 C-2.23699659 7.65438345 -1.62789183 4.09868416 0 0 Z " fill="#D0A556" transform="translate(257,176)" />
  <path d="M0 0 C-1.01812245 2.0362449 -2.03469612 4.06360955 -3.125 6.0625 C-4.20579336 8.10136548 -4.20579336 8.10136548 -4 11 C-6.64 11 -9.28 11 -12 11 C-5.34883721 0 -5.34883721 0 0 0 Z " fill="#CFA04A" transform="translate(277,151)" />
  <path d="M0 0 C0.99 0.33 1.98 0.66 3 1 C2.55269531 1.59425781 2.10539063 2.18851563 1.64453125 2.80078125 C-2.29158499 8.19720501 -5.36181773 13.49646185 -7.95703125 19.65234375 C-9 22 -9 22 -11 25 C-11 22.69 -11 20.38 -11 18 C-10.34 18 -9.68 18 -9 18 C-9 16.35 -9 14.7 -9 13 C-8.34 12.67 -7.68 12.34 -7 12 C-6.855625 11.195625 -6.71125 10.39125 -6.5625 9.5625 C-6 7 -6 7 -3 5 C-1.94895617 3.36504293 -0.94011682 1.70116376 0 0 Z " fill="#C78C46" transform="translate(240,137)" />
  <path d="M0 0 C0.66 0.33 1.32 0.66 2 1 C-7.41002278 11.55808656 -7.41002278 11.55808656 -12 16 C-12.99 15.67 -13.98 15.34 -15 15 C-10.28109462 9.59947495 -5.69641143 4.38185495 0 0 Z " fill="#EED6B8" transform="translate(257,123)" />
  <path d="M0 0 C0.66 0.33 1.32 0.66 2 1 C1.43189471 6.79859195 0.26320265 11.97686594 -1.5625 17.5 C-1.79646484 18.22703125 -2.03042969 18.9540625 -2.27148438 19.703125 C-2.84132781 21.47080261 -3.41975404 23.23570969 -4 25 C-4.33 25 -4.66 25 -5 25 C-5.30830994 19.34765112 -4.65038473 15.18204091 -2.65625 9.8828125 C-1.89029052 8.01755535 -1.89029052 8.01755535 -2 6 C-1.34 6 -0.68 6 0 6 C0 4.02 0 2.04 0 0 Z " fill="#BA793D" transform="translate(374,93)" />
  <path d="M0 0 C4.41077344 -0.07471341 8.82120184 -0.12886513 13.23242188 -0.16479492 C14.72988307 -0.17978888 16.22730105 -0.20019105 17.72460938 -0.22631836 C33.04478067 -0.48676127 33.04478067 -0.48676127 40 3 C36.35893491 4.13063608 34.2034468 3.52854863 30.55078125 2.52050781 C24.96205594 1.38008262 19.18503173 1.51365931 13.5 1.375 C12.200625 1.33632812 10.90125 1.29765625 9.5625 1.2578125 C6.37513714 1.16406653 3.1877721 1.07835651 0 1 C0 0.67 0 0.34 0 0 Z " fill="#EAC59D" transform="translate(287,64)" />
  <path d="M0 0 C0 2.33333333 0 4.66666667 0 7 C-1.65 7.33 -3.3 7.66 -5 8 C-5.2475 8.94875 -5.495 9.8975 -5.75 10.875 C-7 14 -7 14 -9.125 15.375 C-9.74375 15.58125 -10.3625 15.7875 -11 16 C-11.66 15.34 -12.32 14.68 -13 14 C-12.56429688 13.57589844 -12.12859375 13.15179688 -11.6796875 12.71484375 C-7.54991517 8.64764373 -3.71958871 4.44536212 0 0 Z " fill="#6C4F3A" transform="translate(347,379)" />
  <path d="M0 0 C0.99 0 1.98 0 3 0 C3.33 1.32 3.66 2.64 4 4 C3.030625 4.268125 2.06125 4.53625 1.0625 4.8125 C0.051875 5.204375 -0.95875 5.59625 -2 6 C-2.33 6.99 -2.66 7.98 -3 9 C-3.99 8.67 -4.98 8.34 -6 8 C-6.99 8 -7.98 8 -9 8 C-9 7.34 -9 6.68 -9 6 C-8.2575 5.7525 -7.515 5.505 -6.75 5.25 C-3.90002735 4.14873979 -3.90002735 4.14873979 -1.875 1.875 C-1.25625 1.25625 -0.6375 0.6375 0 0 Z " fill="#CA7122" transform="translate(250,76)" />
  <path d="M0 0 C3.25071522 1.34882329 4.61630271 2.4770403 6.17578125 5.625 C6.52833984 6.33140625 6.88089844 7.0378125 7.24414062 7.765625 C7.59669922 8.50296875 7.94925781 9.2403125 8.3125 10 C8.68439453 10.73734375 9.05628906 11.4746875 9.43945312 12.234375 C10.36469557 14.12276555 11.1906071 16.0591302 12 18 C11.67 18.66 11.34 19.32 11 20 C9.5 17.5 9.5 17.5 8 15 C7.443125 14.113125 6.88625 13.22625 6.3125 12.3125 C5 10 5 10 5 8 C4.34 8 3.68 8 3 8 C1.92474806 5.34771188 0.90543849 2.71631546 0 0 Z " fill="#CCA350" transform="translate(338,158)" />
  <path d="M0 0 C0.33 0.66 0.66 1.32 1 2 C0.67 2.99 0.34 3.98 0 5 C0.33 5.66 0.66 6.32 1 7 C0.67 7.66 0.34 8.32 0 9 C-0.99 9 -1.98 9 -3 9 C-4.0260734 10.31337396 -5.02727325 11.64664105 -6 13 C-6.66 13 -7.32 13 -8 13 C-8 13.66 -8 14.32 -8 15 C-8.66 15 -9.32 15 -10 15 C-8.37815499 11.41486894 -6.20743761 8.41007677 -3.875 5.25 C-3.15054688 4.26515625 -2.42609375 3.2803125 -1.6796875 2.265625 C-1.12539062 1.51796875 -0.57109375 0.7703125 0 0 Z " fill="#CA8943" transform="translate(208,105)" />
  <path d="M0 0 C4.38859376 0.84587408 8.60696075 1.69606501 12.6875 3.5625 C15.86061111 4.93951048 18.58292496 5.58328353 22 6 C22 6.66 22 7.32 22 8 C17.21741134 7.51363505 13.43463672 6.88472061 9 5 C7.58588329 4.67615648 6.16896194 4.3644068 4.75 4.0625 C3.5125 3.711875 2.275 3.36125 1 3 C0.67 2.01 0.34 1.02 0 0 Z " fill="#B6B491" transform="translate(309,287)" />
  <path d="M0 0 C0.89203125 0.01804687 1.7840625 0.03609375 2.703125 0.0546875 C3.71632813 0.08949219 3.71632813 0.08949219 4.75 0.125 C4.75 0.785 4.75 1.445 4.75 2.125 C1.84907498 4.05895001 0.85325263 4.42631941 -2.4375 4.75 C-3.695625 4.87375 -4.95375 4.9975 -6.25 5.125 C-6.25 4.465 -6.25 3.805 -6.25 3.125 C-7.24 2.795 -8.23 2.465 -9.25 2.125 C-6.03817851 0.21891902 -3.71117397 -0.09766247 0 0 Z " fill="#C87221" transform="translate(263.25,71.875)" />
  <path d="M0 0 C0 0.33 0 0.66 0 1 C-0.9075 1.061875 -1.815 1.12375 -2.75 1.1875 C-6.78166026 2.19541507 -7.53288687 3.79275293 -10 7 C-11.32 7 -12.64 7 -14 7 C-14 8.98 -14 10.96 -14 13 C-14.33 13 -14.66 13 -15 13 C-15.47396072 9.6145663 -15.76814864 7.08292515 -13.72265625 4.19921875 C-9.23397245 -0.06553978 -6.07115273 -0.63906871 0 0 Z " fill="#DCC9B7" transform="translate(95,375)" />
  <path d="M0 0 C2.76276177 0.52268466 5.3260876 1.10869587 8 2 C8 2.66 8 3.32 8 4 C9.11375 4.103125 10.2275 4.20625 11.375 4.3125 C13.169375 4.6528125 13.169375 4.6528125 15 5 C15.99 6.485 15.99 6.485 17 8 C11.59862734 7.44601306 6.68862229 5.71940093 2 3 C1.34 2.01 0.68 1.02 0 0 Z " fill="#BCB796" transform="translate(292,279)" />
  <path d="M0 0 C0.33 0 0.66 0 1 0 C1.0825 1.19625 1.165 2.3925 1.25 3.625 C1.75914624 7.93374501 3.54306414 10.4334802 6 14 C6.25 16.875 6.25 16.875 6 19 C2.125 17.25 2.125 17.25 1 15 C1.27942455 13.32345271 1.60828247 11.65391846 2 10 C1.34 10 0.68 10 0 10 C0 6.7 0 3.4 0 0 Z " fill="#CC902C" transform="translate(227,208)" />
  <path d="M0 0 C0.68707555 2.49064888 1 4.37886292 1 7 C0.01 7.495 0.01 7.495 -1 8 C-2.04808041 9.97522846 -3.0520411 11.97481509 -4 14 C-4.66 14 -5.32 14 -6 14 C-5.57202798 8.29370646 -3.15654048 4.58921384 0 0 Z " fill="#CFA453" transform="translate(264,162)" />
  <path d="M0 0 C1.48206495 0.254496 2.96068615 0.52911762 4.4375 0.8125 C5.67306641 1.03873047 5.67306641 1.03873047 6.93359375 1.26953125 C7.95646484 1.63111328 7.95646484 1.63111328 9 2 C9.33 2.99 9.66 3.98 10 5 C8.02 5.66 6.04 6.32 4 7 C3.67 6.01 3.34 5.02 3 4 C2.01 4 1.02 4 0 4 C0 2.68 0 1.36 0 0 Z " fill="#C87122" transform="translate(339,74)" />
  <path d="M0 0 C-3.25195438 1.74743573 -6.55568016 2.91963306 -10.0625 4.0625 C-11.62677734 4.57490234 -11.62677734 4.57490234 -13.22265625 5.09765625 C-14.13917969 5.39542969 -15.05570312 5.69320312 -16 6 C-16.99 6.33 -17.98 6.66 -19 7 C-19 6.34 -19 5.68 -19 5 C-18.34 5 -17.68 5 -17 5 C-17 4.34 -17 3.68 -17 3 C-11.10261508 0.70657253 -6.33393082 -0.34548714 0 0 Z " fill="#C58247" transform="translate(286,110)" />
  <path d="M0 0 C2.560881 3.24640915 4.62476717 6.66940716 6.6875 10.25 C7.31011719 11.32765625 7.93273437 12.4053125 8.57421875 13.515625 C9.04472656 14.33546875 9.51523438 15.1553125 10 16 C9.01 15.67 8.02 15.34 7 15 C7 14.34 7 13.68 7 13 C6.195625 12.7525 5.39125 12.505 4.5625 12.25 C2 11 2 11 1.25 9.3125 C1.1675 8.549375 1.085 7.78625 1 7 C0.814375 5.7625 0.62875 4.525 0.4375 3.25 C0.293125 2.1775 0.14875 1.105 0 0 Z " fill="#CC9D4D" transform="translate(236,227)" />
  <path d="M0 0 C1.6586512 0.14298131 3.3210869 0.24541225 4.984375 0.31640625 C6.38623047 0.37924805 6.38623047 0.37924805 7.81640625 0.44335938 C8.78449219 0.48267578 9.75257813 0.52199219 10.75 0.5625 C11.73355469 0.60568359 12.71710938 0.64886719 13.73046875 0.69335938 C16.15351275 0.79922052 18.5766554 0.90130171 21 1 C21 1.33 21 1.66 21 2 C16.91672643 2.0580772 12.83355917 2.09362249 8.75 2.125 C7.01169922 2.15013672 7.01169922 2.15013672 5.23828125 2.17578125 C4.12324219 2.18222656 3.00820313 2.18867188 1.859375 2.1953125 C0.83295898 2.20578613 -0.19345703 2.21625977 -1.25097656 2.22705078 C-4.01984288 1.99836111 -5.64418792 1.4243299 -8 0 C-4.8464199 -1.01365075 -3.15640781 -0.79549144 0 0 Z " fill="#D1A560" transform="translate(288,306)" />
  <path d="M0 0 C1.70824506 6.83298024 0.60288314 10.60124561 -2 17 C-2.99 16.67 -3.98 16.34 -5 16 C-3.35 10.72 -1.7 5.44 0 0 Z " fill="#BAB39E" transform="translate(366,128)" />
  <path d="M0 0 C0.66 0.33 1.32 0.66 2 1 C-2.92176644 4.88560509 -7.73399529 6.47266297 -14 7 C-15.34027567 6.69577966 -16.67540173 6.36650827 -18 6 C-16.78441406 5.65066406 -15.56882812 5.30132812 -14.31640625 4.94140625 C-12.73172137 4.4819414 -11.14708863 4.0222967 -9.5625 3.5625 C-8.76005859 3.33240234 -7.95761719 3.10230469 -7.13085938 2.86523438 C-3.25946753 2.01294138 -3.25946753 2.01294138 0 0 Z " fill="#E9D4B0" transform="translate(347,297)" />
  <path d="M0 0 C0.515625 0.2475 1.03125 0.495 1.5625 0.75 C0.5725 1.08 -0.4175 1.41 -1.4375 1.75 C-1.88222656 2.74773437 -1.88222656 2.74773437 -2.3359375 3.765625 C-2.69945312 4.42046875 -3.06296875 5.0753125 -3.4375 5.75 C-5.6015625 6.359375 -5.6015625 6.359375 -8.0625 6.5 C-8.87976563 6.55671875 -9.69703125 6.6134375 -10.5390625 6.671875 C-11.16554687 6.69765625 -11.79203125 6.7234375 -12.4375 6.75 C-9.17447691 3.29853485 -4.99723075 -0.51253649 0 0 Z " fill="#CA8544" transform="translate(248.4375,76.25)" />
  <path d="M0 0 C4 6 4 6 4 10 C4.66 10 5.32 10 6 10 C6.66 11.98 7.32 13.96 8 16 C7.34 16.33 6.68 16.66 6 17 C4.80015203 14.73495035 3.61505231 12.46410112 2.4375 10.1875 C2.09525391 9.54490234 1.75300781 8.90230469 1.40039062 8.24023438 C0.5234977 6.53073605 -0.24515617 4.76678706 -1 3 C-0.67 2.01 -0.34 1.02 0 0 Z " fill="#EFD7B4" transform="translate(232,214)" />
  <path d="M0 0 C0.66 0 1.32 0 2 0 C2.10957031 0.80824219 2.21914063 1.61648437 2.33203125 2.44921875 C2.49058594 3.51785156 2.64914062 4.58648437 2.8125 5.6875 C2.96332031 6.74324219 3.11414063 7.79898438 3.26953125 8.88671875 C4.02391759 12.10193753 5.15874987 14.28100323 7 17 C5.109375 16.72265625 5.109375 16.72265625 3 16 C0.26025829 10.42266865 -0.32987261 6.15762212 0 0 Z " fill="#CFA150" transform="translate(293,186)" />
  <path d="M0 0 C0 0.33 0 0.66 0 1 C-0.73605469 1.04898438 -1.47210938 1.09796875 -2.23046875 1.1484375 C-3.69419922 1.26058594 -3.69419922 1.26058594 -5.1875 1.375 C-6.15042969 1.44460937 -7.11335938 1.51421875 -8.10546875 1.5859375 C-11.06766911 2.00968006 -13.34780423 2.61501678 -16 4 C-16.33 4.99 -16.66 5.98 -17 7 C-17.66 5.68 -18.32 4.36 -19 3 C-13.10104429 -1.0449982 -6.92696672 -0.27748976 0 0 Z " fill="#CDA254" transform="translate(315,175)" />
  <path d="M0 0 C-2.21229599 2.54414039 -3.65126671 3.54746847 -7 4 C-9.7206671 4.17308419 -12.25888349 4.13263467 -15 4 C-15.66 3.34 -16.32 2.68 -17 2 C-15.95199219 1.90912109 -15.95199219 1.90912109 -14.8828125 1.81640625 C-13.97273438 1.73261719 -13.06265625 1.64882812 -12.125 1.5625 C-11.22007812 1.48128906 -10.31515625 1.40007812 -9.3828125 1.31640625 C-5.98306119 0.86496386 -3.56964143 -0.09393793 0 0 Z " fill="#EED4AB" transform="translate(320,203)" />
  <path d="M0 0 C2.31 0 4.62 0 7 0 C7 1.65 7 3.3 7 5 C5.68 5.33 4.36 5.66 3 6 C3 5.01 3 4.02 3 3 C1.68 3 0.36 3 -1 3 C-0.67 2.01 -0.34 1.02 0 0 Z " fill="#C66F1D" transform="translate(352,82)" />
  <path d="M0 0 C0.99 0.33 1.98 0.66 3 1 C2.50628906 1.40992188 2.01257813 1.81984375 1.50390625 2.2421875 C0.86324219 2.78101563 0.22257813 3.31984375 -0.4375 3.875 C-1.07558594 4.40867187 -1.71367187 4.94234375 -2.37109375 5.4921875 C-4.10805004 6.9222757 -4.10805004 6.9222757 -5 9 C-6.65 9 -8.3 9 -10 9 C-3.73362445 2.55458515 -3.73362445 2.55458515 0 0 Z " fill="#684C38" transform="translate(234,366)" />
  <path d="M0 0 C5.24099655 0.41105855 8.24039194 1.24039194 12 5 C12 5.66 12 6.32 12 7 C7.39104317 5.68315519 3.85859765 3.84801255 0 1 C0 0.67 0 0.34 0 0 Z " fill="#D0A253" transform="translate(234,288)" />
  <path d="M0 0 C1.32 0.33 2.64 0.66 4 1 C4 1.99 4 2.98 4 4 C4.78375 4.268125 5.5675 4.53625 6.375 4.8125 C9 6 9 6 11 9 C10.67 9.99 10.34 10.98 10 12 C8.9171875 10.63875 8.9171875 10.63875 7.8125 9.25 C6.01868959 7.07692682 4.42395671 5.53916537 2.1875 3.75 C1.465625 3.1725 0.74375 2.595 0 2 C0 1.34 0 0.68 0 0 Z " fill="#C38044" transform="translate(344,124)" />
  <path d="M0 0 C9.41002278 -0.3690205 9.41002278 -0.3690205 14 2 C13.67 2.66 13.34 3.32 13 4 C10.9375 4.625 10.9375 4.625 9 5 C9 4.34 9 3.68 9 3 C4.545 2.01 4.545 2.01 0 1 C0 0.67 0 0.34 0 0 Z " fill="#B9AA79" transform="translate(331,295)" />
  <path d="M0 0 C0.99 0 1.98 0 3 0 C3.33 0.66 3.66 1.32 4 2 C4.66 1.67 5.32 1.34 6 1 C8.00800456 1.28112064 10.01014051 1.61067967 12 2 C11.67 3.32 11.34 4.64 11 6 C6.545 5.01 6.545 5.01 2 4 C2 3.34 2 2.68 2 2 C1.34 2 0.68 2 0 2 C0 1.34 0 0.68 0 0 Z " fill="#CD9430" transform="translate(244,291)" />
  <path d="M0 0 C1.98 0 3.96 0 6 0 C7.32 2.97 8.64 5.94 10 9 C6.38677599 7.193388 5.16251209 6.33581029 2.75 3.375 C2.22921875 2.74335938 1.7084375 2.11171875 1.171875 1.4609375 C0.78515625 0.97882813 0.3984375 0.49671875 0 0 Z " fill="#D2A04C" transform="translate(213,271)" />
  <path d="M0 0 C1.299375 0.4640625 1.299375 0.4640625 2.625 0.9375 C8.57013265 2.67303562 14.85139382 2.67594031 21 3 C21 3.33 21 3.66 21 4 C18.24894578 4.10812003 15.50214913 4.18734945 12.75 4.25 C11.58404297 4.30027344 11.58404297 4.30027344 10.39453125 4.3515625 C4.57002825 4.45112665 4.57002825 4.45112665 1.453125 1.984375 C0.73382813 1.00210937 0.73382813 1.00210937 0 0 Z " fill="#CFCAB4" transform="translate(277,269)" />
  <path d="M0 0 C0.66 0 1.32 0 2 0 C1.26190229 6.15081422 -0.05462159 11.53001152 -3 17 C-3.40214229 10.83381819 -1.96818336 5.82254243 0 0 Z " fill="#F1D7B5" transform="translate(182,145)" />
  <path d="M0 0 C-1.33333333 1.33333333 -2.66666667 2.66666667 -4 4 C-6.3828125 3.9765625 -6.3828125 3.9765625 -9.125 3.625 C-10.03507812 3.51414062 -10.94515625 3.40328125 -11.8828125 3.2890625 C-12.93082031 3.14597656 -12.93082031 3.14597656 -14 3 C-9.7368213 0.15788087 -5.03577274 -2.0143091 0 0 Z " fill="#CA8342" transform="translate(272,69)" />
  <path d="M0 0 C0.66 0 1.32 0 2 0 C0.66629231 3.59075147 -0.80987082 6.84621398 -3 10 C-3.99 10.33 -4.98 10.66 -6 11 C-4.54997977 6.89160936 -2.6020866 3.49655387 0 0 Z " fill="#DFCEBC" transform="translate(236,386)" />
  <path d="M0 0 C2.97 0.495 2.97 0.495 6 1 C5.34 2.32 4.68 3.64 4 5 C3.34 4.34 2.68 3.68 2 3 C0.32706064 3.30027117 -1.33985384 3.63557767 -3 4 C-3.99 3.67 -4.98 3.34 -6 3 C-5.01 2.34 -4.02 1.68 -3 1 C-2.01 1.33 -1.02 1.66 0 2 C0 1.34 0 0.68 0 0 Z " fill="#CA9634" transform="translate(297,284)" />
  <path d="M0 0 C8.19256018 0.35010941 8.19256018 0.35010941 11.5625 3.0625 C12.036875 3.701875 12.51125 4.34125 13 5 C8.02693484 4.50269348 4.36200187 3.44697666 0 1 C0 0.67 0 0.34 0 0 Z " fill="#D5AA5F" transform="translate(279,232)" />
  <path d="M0 0 C0.94746094 -0.00773438 1.89492188 -0.01546875 2.87109375 -0.0234375 C5.91441571 0.42709783 7.29511099 1.34882258 9.5625 3.375 C8.84964844 3.29121094 8.13679688 3.20742187 7.40234375 3.12109375 C1.87230427 2.53310839 -2.97778471 2.28305694 -8.4375 3.375 C-5.90226699 0.1483398 -4.01541131 -0.03268992 0 0 Z " fill="#F0D9B0" transform="translate(309.4375,175.625)" />
  <path d="M0 0 C0.8125 1.625 0.8125 1.625 1 4 C-2.87862384 9.65170902 -2.87862384 9.65170902 -6.17578125 10.67578125 C-6.77777344 10.78277344 -7.37976563 10.88976562 -8 11 C-7.59007812 10.45730469 -7.18015625 9.91460937 -6.7578125 9.35546875 C-6.21898437 8.64003906 -5.68015625 7.92460937 -5.125 7.1875 C-4.59132813 6.47980469 -4.05765625 5.77210938 -3.5078125 5.04296875 C-2.29185219 3.39543703 -1.13583859 1.70375789 0 0 Z " fill="#EED4AB" transform="translate(345,214)" />
  <path d="M0 0 C0.66 0.33 1.32 0.66 2 1 C1.72285156 1.49628906 1.44570313 1.99257812 1.16015625 2.50390625 C-1.28687676 7.09318168 -2.56796643 10.81559721 -3 16 C-3.33 16 -3.66 16 -4 16 C-4.54330269 9.34454208 -3.77304004 5.54165256 0 0 Z " fill="#EDD2A8" transform="translate(299,179)" />
  <path d="M0 0 C1.98 0.99 1.98 0.99 4 2 C4 1.34 4 0.68 4 0 C5.65 0.33 7.3 0.66 9 1 C8.01 1.495 8.01 1.495 7 2 C7 2.99 7 3.98 7 5 C4.625 4.75 4.625 4.75 2 4 C0.6875 1.9375 0.6875 1.9375 0 0 Z " fill="#C67328" transform="translate(335,116)" />
  <path d="M0 0 C1.80030122 2.70045182 2.93377066 5.06677881 4.125 8.0625 C4.47820312 8.94035156 4.83140625 9.81820312 5.1953125 10.72265625 C6 13 6 13 6 15 C5.01 14.67 4.02 14.34 3 14 C2.05078125 11.85546875 2.05078125 11.85546875 1.3125 9.1875 C1.06113281 8.31480469 0.80976563 7.44210938 0.55078125 6.54296875 C0 4 0 4 0 0 Z " fill="#E7CA98" transform="translate(256,201)" />
  <path d="M0 0 C0.33 0 0.66 0 1 0 C1.08107583 1.93681161 1.13922475 3.8745934 1.1875 5.8125 C1.23970703 7.43091797 1.23970703 7.43091797 1.29296875 9.08203125 C1 12 1 12 -0.51171875 13.88671875 C-1.00285156 14.25410156 -1.49398437 14.62148437 -2 15 C-1.85816304 13.24967156 -1.71136571 11.49974466 -1.5625 9.75 C-1.48128906 8.77546875 -1.40007812 7.8009375 -1.31640625 6.796875 C-1.04925416 4.43538247 -0.64628032 2.28098935 0 0 Z " fill="#CC934D" transform="translate(180,158)" />
  <path d="M0 0 C2.31 0.33 4.62 0.66 7 1 C7.103125 1.639375 7.20625 2.27875 7.3125 2.9375 C7.539375 3.618125 7.76625 4.29875 8 5 C8.99 5.33 9.98 5.66 11 6 C10.67 6.66 10.34 7.32 10 8 C8.33055479 6.85821872 6.6645052 5.71147095 5 4.5625 C4.071875 3.92441406 3.14375 3.28632812 2.1875 2.62890625 C1.465625 2.09136719 0.74375 1.55382812 0 1 C0 0.67 0 0.34 0 0 Z " fill="#EED0B0" transform="translate(364,85)" />
  <path d="M0 0 C2.97 0.495 2.97 0.495 6 1 C6 1.66 6 2.32 6 3 C1.375 5.125 1.375 5.125 -2 4 C-1.34 2.68 -0.68 1.36 0 0 Z " fill="#CB9A45" transform="translate(334,297)" />
  <path d="M0 0 C6.435 2.97 6.435 2.97 13 6 C13 6.33 13 6.66 13 7 C7.88523181 7.63934602 4.32745622 5.40533547 0 3 C0 2.01 0 1.02 0 0 Z " fill="#F1DDBD" transform="translate(275,230)" />
  <path d="M0 0 C3.63 1.65 7.26 3.3 11 5 C11 5.33 11 5.66 11 6 C7.14521782 6.35858439 5.42240542 6.2754818 2.125 4.125 C1.42375 3.42375 0.7225 2.7225 0 2 C0 1.34 0 0.68 0 0 Z " fill="#C47A38" transform="translate(348,76)" />
  <path d="M0 0 C0.33 0.99 0.66 1.98 1 3 C-0.40445835 5.2636564 -2.1967913 7.0208685 -4 9 C-4.66 8.34 -5.32 7.68 -6 7 C-4.02 4.69 -2.04 2.38 0 0 Z " fill="#E3CFBB" transform="translate(353,395)" />
  <path d="M0 0 C0.33 0.99 0.66 1.98 1 3 C-1.31 4.32 -3.62 5.64 -6 7 C-6 6.01 -6 5.02 -6 4 C-3 1.8125 -3 1.8125 0 0 Z " fill="#664A3C" transform="translate(118,372)" />
  <path d="M0 0 C2.31 0.66 4.62 1.32 7 2 C7 2.66 7 3.32 7 4 C7.66 4.33 8.32 4.66 9 5 C5.93606987 5.25532751 4.36766788 5.21861333 1.6875 3.625 C1.130625 3.08875 0.57375 2.5525 0 2 C0 1.34 0 0.68 0 0 Z " fill="#C59C45" transform="translate(303,286)" />
  <path d="M0 0 C4.76649079 1.58883026 6.73323742 4.57981296 9 9 C8.67 9.66 8.34 10.32 8 11 C6.66072279 9.54712339 5.32873153 8.08752741 4 6.625 C3.2575 5.81289063 2.515 5.00078125 1.75 4.1640625 C0 2 0 2 0 0 Z " fill="#CD9C47" transform="translate(204,260)" />
  <path d="M0 0 C3 1 3 1 4.6875 3.75 C5.93950669 6.85020705 6.28970125 8.71671912 6 12 C2.82781157 8.37464179 1.57097403 4.48849722 0 0 Z " fill="#EDD5AE" transform="translate(344,164)" />
  <path d="M0 0 C1.38576923 1.62332967 2.72641268 3.28724465 4 5 C0.7 4.01 -2.6 3.02 -6 2 C-6 1.34 -6 0.68 -6 0 C-3 -1 -3 -1 0 0 Z " fill="#EED9B8" transform="translate(323,143)" />
  <path d="M0 0 C2.97 0.495 2.97 0.495 6 1 C6 2.98 6 4.96 6 7 C5.67 5.68 5.34 4.36 5 3 C3.02 3.33 1.04 3.66 -1 4 C-0.67 2.68 -0.34 1.36 0 0 Z " fill="#C46F22" transform="translate(368,92)" />
  <path d="M0 0 C1.98 1.65 3.96 3.3 6 5 C5.34 5.66 4.68 6.32 4 7 C3.67 6.01 3.34 5.02 3 4 C2.34 4 1.68 4 1 4 C1 5.65 1 7.3 1 9 C0.67 9 0.34 9 0 9 C0 6.03 0 3.06 0 0 Z " fill="#E2D0BC" transform="translate(333,419)" />
  <path d="M0 0 C0.99 0.33 1.98 0.66 3 1 C5.05893621 1.22325814 7.12233653 1.40705759 9.1875 1.5625 C10.27417969 1.64628906 11.36085938 1.73007812 12.48046875 1.81640625 C13.72763672 1.90728516 13.72763672 1.90728516 15 2 C15 2.33 15 2.66 15 3 C9.72 3 4.44 3 -1 3 C-0.67 2.01 -0.34 1.02 0 0 Z " fill="#EDD9C7" transform="translate(318,358)" />
  <path d="M0 0 C3.15330554 0.60694155 5.18888867 1.6416665 7.75 3.5625 C8.67039062 4.24505859 8.67039062 4.24505859 9.609375 4.94140625 C10.29773438 5.46541016 10.29773438 5.46541016 11 6 C9 7 9 7 5.9375 6.25 C4.968125 5.8375 3.99875 5.425 3 5 C2.67 4.01 2.34 3.02 2 2 C1.34 1.34 0.68 0.68 0 0 Z " fill="#C4983E" transform="translate(286,277)" />
  <path d="M0 0 C3.63 2.31 7.26 4.62 11 7 C7 8 7 8 5.078125 6.85546875 C4.47484375 6.30503906 3.8715625 5.75460937 3.25 5.1875 C2.63640625 4.64480469 2.0228125 4.10210937 1.390625 3.54296875 C0 2 0 2 0 0 Z " fill="#CB9B4A" transform="translate(263,260)" />
  <path d="M0 0 C0.66 0.33 1.32 0.66 2 1 C1.01 2.485 1.01 2.485 0 4 C-1.9453125 4.29296875 -1.9453125 4.29296875 -4.125 4.1875 C-5.40375 4.125625 -6.6825 4.06375 -8 4 C-5.31143836 2.20762558 -3.0466145 1.01553817 0 0 Z " fill="#EACFA1" transform="translate(325,233)" />
  <path d="M0 0 C2 3 2 3 1.625 5.1875 C1.41875 5.785625 1.2125 6.38375 1 7 C0.34 7 -0.32 7 -1 7 C-1.33 8.32 -1.66 9.64 -2 11 C-3 9 -3 9 -2.44140625 6.8359375 C-2.15136719 6.02382812 -1.86132812 5.21171875 -1.5625 4.375 C-1.27503906 3.55773437 -0.98757813 2.74046875 -0.69140625 1.8984375 C-0.46324219 1.27195313 -0.23507812 0.64546875 0 0 Z " fill="#BECAC0" transform="translate(369,214)" />
  <path d="M0 0 C0.33 0 0.66 0 1 0 C1 4.62 1 9.24 1 14 C0.01 14.33 -0.98 14.66 -2 15 C-1.34 10.05 -0.68 5.1 0 0 Z " fill="#D8B26F" transform="translate(325,186)" />
  <path d="M0 0 C1.32 0 2.64 0 4 0 C4 0.99 4 1.98 4 3 C3.34 3 2.68 3 2 3 C1.67 5.64 1.34 8.28 1 11 C-0.17571451 7.32589215 -0.07366746 3.83070817 0 0 Z " fill="#C27027" transform="translate(365,115)" />
  <path d="M0 0 C-1.70828921 2.10633718 -2.52148416 2.93801608 -5.26171875 3.29296875 C-6.06222656 3.25816406 -6.86273438 3.22335938 -7.6875 3.1875 C-8.89986328 3.14689453 -8.89986328 3.14689453 -10.13671875 3.10546875 C-11.05904297 3.05326172 -11.05904297 3.05326172 -12 3 C-8.48214012 -0.51785988 -4.80656342 -0.10924008 0 0 Z " fill="#F0D4B8" transform="translate(288,111)" />
  <path d="M0 0 C0.66 0.33 1.32 0.66 2 1 C-1.32307692 5.8 -1.32307692 5.8 -4.75 6.8125 C-5.4925 6.874375 -6.235 6.93625 -7 7 C-4.66666667 4.66666667 -2.33333333 2.33333333 0 0 Z " fill="#C98C51" transform="translate(225,89)" />
  <path d="M0 0 C2.64465038 3.1254959 3.84414715 6.08788267 5 10 C2 9 2 9 0.8125 7.25 C-0.10819096 4.70039426 -0.14948718 2.69076919 0 0 Z " fill="#E8CC9D" transform="translate(190,239)" />
  <path d="M0 0 C1.10914742 3.32744227 1.03211839 5.64561525 0 9 C-1.5625 10.8125 -1.5625 10.8125 -3 12 C-2.40075776 7.80530429 -1.42500059 3.99000166 0 0 Z " fill="#ECD1AC" transform="translate(231,156)" />
  <path d="M0 0 C1.36125 0.12375 1.36125 0.12375 2.75 0.25 C1.76 0.58 0.77 0.91 -0.25 1.25 C-0.58 2.24 -0.91 3.23 -1.25 4.25 C-3.23 4.25 -5.21 4.25 -7.25 4.25 C-4.83923194 1.28290085 -3.90322061 0.30024774 0 0 Z " fill="#D0A04D" transform="translate(284.25,146.75)" />
  <path d="M0 0 C1.32 0.33 2.64 0.66 4 1 C4 1.99 4 2.98 4 4 C4.99 4 5.98 4 7 4 C6.67 5.32 6.34 6.64 6 8 C4.9970458 6.85675161 3.99770973 5.71032809 3 4.5625 C2.443125 3.92441406 1.88625 3.28632813 1.3125 2.62890625 C0 1 0 1 0 0 Z " fill="#BC7D4A" transform="translate(355,136)" />
  <path d="M0 0 C0.6875 1.6875 0.6875 1.6875 1 4 C-0.3125 6.75 -0.3125 6.75 -2 9 C-2.66 9 -3.32 9 -4 9 C-2.80100302 5.9168649 -1.52299523 2.93720508 0 0 Z " fill="#CC914B" transform="translate(192,128)" />
  <path d="M0 0 C-3.20336822 2.83374881 -5.78087253 3.5205537 -10 4 C-7.16124653 -0.25813021 -4.8137938 -0.13010254 0 0 Z " fill="#F0CFAE" transform="translate(256,72)" />
  <path d="M0 0 C0.33 1.32 0.66 2.64 1 4 C-0.65 5.32 -2.3 6.64 -4 8 C-4 4.09161134 -2.49432124 2.88405893 0 0 Z " fill="#E3D0BE" transform="translate(120,443)" />
  <path d="M0 0 C3 1 3 1 4.75 3.9375 C5.1625 4.948125 5.575 5.95875 6 7 C5.67 7.66 5.34 8.32 5 9 C4.16094435 7.87926138 3.32892169 6.75325453 2.5 5.625 C2.0359375 4.99851563 1.571875 4.37203125 1.09375 3.7265625 C0 2 0 2 0 0 Z " fill="#EDD3A8" transform="translate(242,236)" />
  <path d="M0 0 C-0.33 1.32 -0.66 2.64 -1 4 C-2.98 4.33 -4.96 4.66 -7 5 C-2.25 0 -2.25 0 0 0 Z " fill="#CDA24E" transform="translate(324,201)" />
  <path d="M0 0 C0.33 0.66 0.66 1.32 1 2 C1.66 2 2.32 2 3 2 C3.33 3.32 3.66 4.64 4 6 C1.11562221 4.70700306 -0.87219421 3.34058637 -3 1 C-2.01 0.67 -1.02 0.34 0 0 Z " fill="#D1A050" transform="translate(230,282)" />
  <path d="M0 0 C0.66 0 1.32 0 2 0 C2 0.99 2 1.98 2 3 C2.66 3.33 3.32 3.66 4 4 C2.35 4.33 0.7 4.66 -1 5 C-1 2 -1 2 0 0 Z " fill="#CD9C3A" transform="translate(326,227)" />
  <path d="M0 0 C0.33 0 0.66 0 1 0 C1.36923077 5.53846154 1.36923077 5.53846154 -0.5 7.875 C-1.2425 8.431875 -1.2425 8.431875 -2 9 C-2.33 8.34 -2.66 7.68 -3 7 C-2.06421005 4.64018187 -1.06652192 2.30368736 0 0 Z " fill="#ECD6AC" transform="translate(349,205)" />
  <path d="M0 0 C6.875 3.75 6.875 3.75 8 6 C5.21788056 5.62403791 3.4120716 5.32681541 1.1875 3.5625 C0 2 0 2 0 0 Z " fill="#C17E40" transform="translate(366,87)" />
</svg>